<svg xmlns="http://www.w3.org/2000/svg" width="48.277" height="37.893" viewBox="0 0 48.277 37.893">
  <path id="パス_35" data-name="パス 35" d="M48.152,60.457a6.678,6.678,0,0,0-1.382-2.928,5.758,5.758,0,0,0-.455-.5,6.682,6.682,0,0,0-4.735-1.963H6.7a6.691,6.691,0,0,0-4.734,1.963,5.88,5.88,0,0,0-.455.5A6.6,6.6,0,0,0,.131,60.457,6.477,6.477,0,0,0,0,61.759v24.5a6.658,6.658,0,0,0,.555,2.659,6.564,6.564,0,0,0,1.407,2.074c.15.15.3.287.461.424A6.691,6.691,0,0,0,6.7,92.955H41.58a6.648,6.648,0,0,0,4.274-1.545,5.784,5.784,0,0,0,.461-.418,6.7,6.7,0,0,0,1.414-2.074v-.006a6.626,6.626,0,0,0,.548-2.653v-24.5A6.882,6.882,0,0,0,48.152,60.457ZM4.385,59.447A3.235,3.235,0,0,1,6.7,58.488H41.58a3.218,3.218,0,0,1,2.6,1.3L25.9,75.725a2.684,2.684,0,0,1-3.526,0L4.1,59.784A2.472,2.472,0,0,1,4.385,59.447ZM3.426,86.259V63.329L16.657,74.871,3.433,86.4A.978.978,0,0,1,3.426,86.259Zm38.154,3.27H6.7A3.226,3.226,0,0,1,5.077,89.1L19.03,76.94l1.3,1.133a5.8,5.8,0,0,0,7.618,0l1.3-1.133L43.2,89.1A3.23,3.23,0,0,1,41.58,89.529Zm3.271-3.27a1.021,1.021,0,0,1-.006.143L31.62,74.878,44.851,63.335Z" transform="translate(0 -55.062)" fill="#fff"/>
</svg>
